<?xml version="1.0" encoding="UTF-8" standalone="no"?>
<!-- Created with Inkscape (http://www.inkscape.org/) -->

<svg
   width="512"
   height="512"
   viewBox="0 0 512 512"
   version="1.1"
   id="svg1"
   inkscape:version="1.3.2 (091e20e, 2023-11-25, custom)"
   sodipodi:docname="contact.svg"
   xmlns:inkscape="http://www.inkscape.org/namespaces/inkscape"
   xmlns:sodipodi="http://sodipodi.sourceforge.net/DTD/sodipodi-0.dtd"
   xmlns="http://www.w3.org/2000/svg"
   xmlns:svg="http://www.w3.org/2000/svg">
  <sodipodi:namedview
     id="namedview1"
     pagecolor="#ffffff"
     bordercolor="#000000"
     borderopacity="0.25"
     inkscape:showpageshadow="2"
     inkscape:pageopacity="0.0"
     inkscape:pagecheckerboard="0"
     inkscape:deskcolor="#d1d1d1"
     inkscape:document-units="px"
     showgrid="false"
     inkscape:zoom="0.99414062"
     inkscape:cx="244.93517"
     inkscape:cy="255.49705"
     inkscape:window-width="1366"
     inkscape:window-height="705"
     inkscape:window-x="-8"
     inkscape:window-y="-8"
     inkscape:window-maximized="1"
     inkscape:current-layer="layer1">
    <inkscape:grid
       id="grid1"
       units="px"
       originx="0"
       originy="0"
       spacingx="1"
       spacingy="1"
       empcolor="#0099e5"
       empopacity="0.30196078"
       color="#0099e5"
       opacity="0.14901961"
       empspacing="5"
       dotted="false"
       gridanglex="30"
       gridanglez="30"
       visible="false" />
    <sodipodi:guide
       position="0,512"
       orientation="0,512"
       id="guide11"
       inkscape:locked="false" />
    <sodipodi:guide
       position="512,512"
       orientation="512,0"
       id="guide12"
       inkscape:locked="false" />
    <sodipodi:guide
       position="512,0"
       orientation="0,-512"
       id="guide13"
       inkscape:locked="false" />
    <sodipodi:guide
       position="0,0"
       orientation="-512,0"
       id="guide14"
       inkscape:locked="false" />
  </sodipodi:namedview>
  <defs
     id="defs1">
    <pattern
       patternUnits="userSpaceOnUse"
       width="100"
       height="100"
       id="Gingham"
       preserveAspectRatio="xMidYMid"
       patternTransform="scale(0.5,0.5)"
       style="fill:#0000ff">
      <rect
   style="fill-opacity:0.5;stroke:none"
   id="rect4"
   width="50"
   height="50"
   x="50"
   y="0" />

      <rect
   style="stroke:none"
   id="rect5"
   width="50"
   height="50"
   x="50"
   y="50" />

      <rect
   style="fill-opacity:0.5;stroke:none"
   id="rect6"
   width="50"
   height="50"
   x="0"
   y="50" />

    </pattern>
    <pattern
       patternUnits="userSpaceOnUse"
       preserveAspectRatio="xMidYMid"
       width="50"
       height="50"
       id="TableCloth"
       inkscape:stockid="Table Cloth"
       style="fill:none">
      <g
   id="g152475">
        <rect
   style="fill:none;fill-opacity:1;stroke:none;stroke-width:1;stroke-dasharray:none"
   id="rect152346"
   width="50"
   height="50"
   x="0"
   y="0" />

        <path
   id="path152348"
   style="fill:#afecda;fill-opacity:1;stroke:none;stroke-width:0.999995;stroke-dasharray:none"
   d="m 0.5,25.5 v 22 l 2,2 h 22 v -19 l -5,-5 z" />

        <path
   id="path152350"
   style="fill:#a8cbfe;fill-opacity:1;stroke:none;stroke-width:0.999995;stroke-dasharray:none"
   d="m 30.5,25.5 -5,5 v 19 h 22 l 2,-2 v -22 z" />

        <path
   id="path152352"
   style="fill:#cbbbe9;fill-opacity:1;stroke:none;stroke-width:0.999995;stroke-dasharray:none"
   d="m 25.5,0.5 v 19 l 5,5 h 19 v -22 l -2,-2 z" />

        <path
   id="path152354"
   style="fill:#f0b6d3;fill-opacity:1;stroke:none;stroke-width:0.999995;stroke-dasharray:none"
   d="m 2.5,0.5 -2,2 v 22 h 19 l 5,-5 v -19 z" />

        <path
   id="path152356"
   style="fill:#ffe9a6;stroke-width:1"
   d="m 17.5,37.5 c 0,2.761423 -2.238577,5 -5,5 -2.7614235,0 -5,-2.238577 -5,-5 0,-2.761424 2.2385765,-5 5,-5 2.761423,0 5,2.238576 5,5 z m 2.5,0 C 20,33.345004 16.654996,30 12.5,30 h -12 v 15 h 12 c 4.154996,0 7.5,-3.345004 7.5,-7.5 z"
   sodipodi:nodetypes="sssssssccss" />

        <path
   id="path152358"
   style="fill:#ea95bf;stroke-width:1"
   d="m 42.5,37.5 c 0,2.761423 -2.238577,5 -5,5 -2.761424,0 -5,-2.238577 -5,-5 0,-2.761424 2.238576,-5 5,-5 2.761423,0 5,2.238576 5,5 z M 37.5,30 C 33.345004,30 30,33.345004 30,37.5 v 12 h 15 v -12 C 45,33.345004 41.654996,30 37.5,30 Z"
   sodipodi:nodetypes="sssssssccss" />

        <path
   id="path152360"
   style="fill:#81b4fe;stroke-width:1"
   d="m 12.5,7.5 c 2.77,0 5,2.23 5,5 0,2.77 -2.23,5 -5,5 -2.77,0 -5,-2.23 -5,-5 0,-2.77 2.23,-5 5,-5 z m 0,12.5 C 16.654996,20 20,16.654996 20,12.5 V 0.5 H 5 v 12 c 0,4.154996 3.345004,7.5 7.5,7.5 z"
   sodipodi:nodetypes="sssssssccss" />

        <path
   id="path152362"
   style="fill:#8be3c9;stroke-width:1"
   d="m 42.5,12.5 c 0,2.761423 -2.238577,5 -5,5 -2.761424,0 -5,-2.238577 -5,-5 0,-2.7614235 2.238576,-5 5,-5 2.761423,0 5,2.2385765 5,5 z m -12.5,0 c 0,4.154996 3.345004,7.5 7.5,7.5 h 12 V 5 h -12 C 33.345004,5 30,8.345004 30,12.5 Z"
   sodipodi:nodetypes="sssssssccss" />

        <path
   style="fill:#81b4fe;fill-opacity:1;stroke:none;stroke-width:1;stroke-dasharray:none"
   d="m 25.5,30.5 h 5 v -5 z"
   id="path152364"
   sodipodi:nodetypes="cccc" />

        <path
   style="fill:#67dab8;fill-opacity:1;stroke:none;stroke-width:1;stroke-dasharray:none"
   d="m 24.5,30.5 h -5 v -5 z"
   id="path152366"
   sodipodi:nodetypes="cccc" />

        <path
   style="fill:#ea95bf;fill-opacity:1;stroke:none;stroke-width:1;stroke-dasharray:none"
   d="m 24.5,19.5 h -5 v 5 z"
   id="path152368"
   sodipodi:nodetypes="cccc" />

        <path
   style="fill:#b49ddf;fill-opacity:1;stroke:none;stroke-width:1;stroke-dasharray:none"
   d="m 25.5,19.5 h 5 v 5 z"
   id="path152370"
   sodipodi:nodetypes="cccc" />

        <path
   style="fill:#81b4fe;fill-opacity:1;stroke:none;stroke-width:1;stroke-dasharray:none"
   d="m 49.5,47.5 h -2 v 2 z"
   id="path153287"
   sodipodi:nodetypes="cccc" />

        <path
   style="fill:#67dab8;fill-opacity:1;stroke:none;stroke-width:1;stroke-dasharray:none"
   d="m 0.5,47.5 h 2 v 2 z"
   id="path154015"
   sodipodi:nodetypes="cccc" />

        <path
   style="fill:#ea95bf;fill-opacity:1;stroke:none;stroke-width:1;stroke-dasharray:none"
   d="m 0.5,2.5 h 2 v -2 z"
   id="path154155"
   sodipodi:nodetypes="cccc" />

        <path
   style="fill:#b49ddf;fill-opacity:1;stroke:none;stroke-width:1;stroke-dasharray:none"
   d="m 49.5,2.5 h -2 v -2 z"
   id="path154226"
   sodipodi:nodetypes="cccc" />

      </g>

    </pattern>
  </defs>
  <g
     inkscape:label="Capa 1"
     inkscape:groupmode="layer"
     id="layer1">
    <ellipse
       style="fill:#000000;fill-opacity:1;stroke:#000000;stroke-width:45.5133;stroke-dasharray:none;stroke-opacity:1"
       id="path1"
       cx="252.44708"
       cy="179.29712"
       rx="127.51541"
       ry="131.78967" />
    <path
       style="fill:#000000;fill-opacity:1;fill-rule:nonzero;stroke:#000000;stroke-width:13.0777"
       d="m 189.04557,241.87497 c 0,0 66.13105,61.23006 -55.56538,118.2545 -67.232132,31.50361 -52.71585,109.706 -52.71585,109.706 l 354.76353,-1.42474 c 0,0 9.27622,-88.64822 -61.26438,-115.40502 C 250.30996,305.98884 318.69812,241.87497 318.69812,241.87497 Z"
       id="path2"
       sodipodi:nodetypes="csccscc" />
  </g>
</svg>
